<svg width="300" height="97" viewBox="0 0 300 97" fill="none" xmlns="http://www.w3.org/2000/svg">
<path fill-rule="evenodd" clip-rule="evenodd" d="M89.2728 0.277228C86.3536 0.049728 83.4235 -0.0126511 80.5516 0.00202631C72.3405 0.0416934 64.1643 0.0394841 55.9815 0.0372729C52.0532 0.0362114 48.1234 0.0351496 44.1874 0.0387201C34.2193 0.0460588 24.2585 1.47711 15.9991 7.49119C9.22646 12.4228 4.13337 19.5634 1.68316 27.6323C0.563476 31.32 0 35.1765 0 39.033C0 55.791 11.3568 71.8701 27.6067 76.277C35.3331 78.3716 43.5396 78.1889 51.5902 78.0096H51.5906C53.8352 77.9596 56.0677 77.9099 58.2743 77.9099C60.3654 77.9099 62.4578 77.8989 64.5505 77.8879C68.7372 77.8659 72.9255 77.8438 77.109 77.9099C78.3704 77.9282 79.8282 78.064 80.7588 79.0327C81.2023 79.4944 81.5434 80.0291 81.8846 80.5638L81.8846 80.5639C82.2565 81.1468 82.6283 81.7297 83.1327 82.2177C85.9028 84.9037 90.6796 84.9881 93.7151 82.7094C94.8894 81.8288 95.7073 80.6509 96.318 79.3226C96.9251 78.0053 97.3796 77.2714 98.7573 76.7797L99.2296 76.6124L99.2298 76.6123C102.887 75.3167 106.512 74.0327 109.809 71.9325C120.846 64.902 127.796 52.2978 127.796 39.033C127.796 27.0452 121.958 15.2996 112.528 8.03426C105.817 2.86413 97.5759 0.915697 89.2764 0.273559L89.2728 0.277228ZM116.577 43.3877C115.527 49.8972 112.124 55.9333 107.14 60.1934C102.112 64.4939 95.5834 66.1855 88.9199 66.8203C82.8707 67.3964 75.7382 67.9248 69.7072 66.9634C67.9113 66.6772 66.17 65.8883 64.7631 64.7251C63.189 63.4261 62.4692 61.0484 62.3056 59.0853C62.0693 56.2709 61.913 53.4491 61.7821 50.6311C61.4949 44.5693 61.4695 38.5148 61.4695 32.4494C61.5131 29.246 61.6331 26.0427 61.8512 22.8467C62.0439 20.0286 62.2693 17.1702 64.0397 14.8401C67.0309 10.9033 72.3513 10.8991 76.899 10.8955C77.2979 10.8952 77.6908 10.8949 78.0757 10.8919C78.511 10.8885 78.949 10.8843 79.3892 10.8801L79.3899 10.8801C86.4817 10.8123 94.1532 10.7391 100.684 13.7136C111.797 18.7774 118.548 31.2055 116.581 43.3877H116.577ZM39.4968 24.3335C37.4756 18.3377 30.2049 18.3414 27.2385 22.7043L27.2312 22.7116C26.6096 23.6289 26.1733 24.7371 26.0206 26.025C25.9552 26.5608 25.9588 31.841 26.4823 31.8556C26.3129 31.8508 26.1408 31.8455 25.9662 31.8401C21.1629 31.6932 14.5481 31.4907 13.4642 37.6055C12.8353 41.1538 15.2019 44.4893 18.5355 45.4653C21.0511 46.1992 23.7304 46.0047 26.3405 45.8029C25.4717 49.3512 24.8355 54.0956 27.6856 56.9137C29.7505 58.9539 33.3676 59.541 35.9887 58.2861C37.9918 57.3247 39.2787 55.2258 39.8131 53.0535C40.3041 51.0577 40.2289 49.019 40.154 46.9878C40.1468 46.7933 40.1396 46.5989 40.133 46.4047C43.0376 46.7055 46.6657 46.8303 49.1777 45.0543C52.1405 42.9628 53.3438 37.9027 51.2425 34.8168C50.0792 33.1069 48.1089 32.0942 46.0949 31.6758C44.0809 31.2539 42.0052 31.3603 39.9512 31.4667C40.1911 29.0779 40.2638 26.6085 39.4968 24.3335Z" fill="#23C52A"/>
<path d="M76.2186 91.5543C77.4224 91.5406 78.6262 91.0463 79.4151 90.123C81.724 87.4286 79.7245 83.0696 76.2186 83.0696C72.1822 83.0696 70.4956 88.5544 73.8383 90.8575C74.5354 91.3381 75.3753 91.5646 76.2186 91.5543Z" fill="#23C52A"/>
<path d="M69.4987 96.4373C70.1497 96.4299 70.8006 96.1626 71.2273 95.6633C72.4759 94.2062 71.3946 91.8489 69.4987 91.8489C67.3159 91.8489 66.4038 94.815 68.2114 96.0605C68.5884 96.3203 69.0426 96.4429 69.4987 96.4373Z" fill="#23C52A"/>
<path d="M95.3035 26.9163C95.3217 26.1788 95.2199 25.4413 94.9836 24.7367C93.7912 21.2178 89.4688 19.2254 86.0771 20.7225C82.6999 22.2122 81.0494 26.6044 82.718 29.9472C84.2194 32.9561 88.1819 34.4275 91.2574 33.1212C93.6567 32.1011 95.2345 29.5179 95.2999 26.9163H95.3035Z" fill="#23C52A"/>
<path d="M95.2845 50.4708C95.2845 49.025 94.8628 47.5793 93.9976 46.4235C91.3329 42.8495 85.5964 42.9486 83.1789 46.717C81.0922 49.9754 82.1392 54.6245 85.5891 56.4408C88.2465 57.8389 91.8201 57.1307 93.7577 54.8226C94.7683 53.6191 95.2809 52.0449 95.2809 50.4708H95.2845Z" fill="#23C52A"/>
<path d="M100.338 45.3704C101.531 45.3814 102.72 45.0916 103.748 44.4751C106.34 42.9193 107.62 39.4444 106.664 36.5566C105.268 32.3405 99.8404 30.5829 96.3614 33.3276C93.3477 35.7053 92.8242 40.4278 95.4671 43.2826C96.7104 44.6256 98.5281 45.3484 100.342 45.3668L100.338 45.3704Z" fill="#23C52A"/>
<path d="M77.0036 45.4243C80.6862 45.4243 83.6708 42.4117 83.6708 38.6947C83.6708 35.0436 80.8098 32.4201 77.3308 32.0531C73.5755 31.6568 70.3364 34.9666 70.3364 38.6947C70.3364 42.4117 73.321 45.4243 77.0036 45.4243Z" fill="#23C52A"/>
<path d="M212.283 8.58549C216.195 8.18329 220.217 8.54141 224.145 8.5359C225.523 8.5359 227.198 8.43673 228.107 9.69289C228.757 10.5909 228.663 11.6763 228.636 12.7231C228.608 13.8581 228.647 15.0151 228.647 16.1555V64.4462C228.647 65.5977 228.812 66.7987 228.652 67.9337C228.404 69.7243 227.032 70.5727 225.308 70.6223C221.672 70.7215 218.063 70.5452 214.427 70.6003C213.187 70.6168 211.782 70.7546 210.697 70.0218C209.325 69.0907 209.529 67.4103 209.529 65.9558C209.529 64.8925 209.529 63.8291 209.529 62.7713V55.0801C209.529 54.0773 209.529 53.0691 209.529 52.0664C209.529 50.5458 208.295 49.3116 206.774 49.3116H182.147C180.626 49.3116 179.392 50.5458 179.392 52.0664V64.0275C179.392 65.1018 179.386 66.1707 179.408 67.245C179.425 67.9392 179.364 68.661 179.006 69.256C178.642 69.8675 177.998 70.2752 177.309 70.4626C176.356 70.7215 175.293 70.5893 174.312 70.5893C171.342 70.5893 168.373 70.5893 165.403 70.5893C164.004 70.5893 162.263 70.8537 161.133 69.8235C160.224 68.997 160.279 67.829 160.279 66.7106C160.279 65.3663 160.279 64.0275 160.279 62.6832V20.5852C160.279 18.0232 160.279 15.4613 160.285 12.8994C160.285 11.8416 160.125 10.7177 160.748 9.79206C161.536 8.62405 163.034 8.46979 164.323 8.46428C167.679 8.44775 171.034 8.48081 174.389 8.48081C175.596 8.48081 176.951 8.49733 178.042 9.07583C179.524 9.85818 179.408 11.5551 179.392 12.9986C179.381 14.1225 179.392 15.252 179.392 16.3759V27.0753C179.392 28.5959 180.626 29.8301 182.147 29.8301H206.774C208.295 29.8301 209.529 28.5959 209.529 27.0753V16.7505C209.529 15.6266 209.529 14.5027 209.529 13.3787C209.529 12.4146 209.413 11.3623 209.733 10.4201C210.118 9.27968 211.121 8.70118 212.278 8.58549H212.283Z" fill="#1D344B"/>
<path d="M266.616 46.4159C266.616 46.4159 266.616 46.3774 266.616 46.3608C266.434 44.2507 266.561 42.0138 266.627 39.8982C266.654 39.0277 266.93 38.1462 267.541 37.5126C268.236 36.7908 269.315 36.7468 270.263 36.7578C271.988 36.7798 273.701 36.7798 275.425 36.7798H287.497C290.499 36.7798 293.502 36.7192 296.499 36.7413C297.43 36.7468 298.461 36.9727 299.166 37.6173C300.102 38.4657 299.97 39.5621 299.976 40.7191C299.998 46.2782 300.003 51.8428 299.998 57.4018C299.998 60.1841 299.992 62.9609 299.981 65.7432C299.976 67.7542 300.014 70.5254 297.232 70.5254H291.32C289.965 70.5254 288.808 69.5392 288.599 68.1949C288.433 67.1426 288.263 66.0903 288.119 65.0325C288.064 64.6358 287.96 64.2336 287.701 63.9306C286.378 62.3934 284.654 64.9443 283.728 65.7542C281.668 67.5613 279.221 68.8671 276.638 69.7596C273.117 70.9772 269.371 71.407 265.657 71.407C246.693 71.407 235.52 61.0436 235.52 39.4354C235.52 17.8272 246.693 7.64014 267.866 7.64014C272.186 7.64014 276.544 8.00377 280.742 9.07261C284.169 9.94311 287.502 11.3095 290.389 13.3755C293.006 15.2487 295.182 17.6894 296.731 20.5103C298.02 22.8629 298.907 25.4303 299.397 28.0693C299.783 30.1574 300.009 32.9948 297.149 33.1876C294.736 33.3529 292.301 33.2372 289.882 33.2372C288.02 33.2372 286.158 33.2648 284.29 33.2372C283.287 33.2262 282.219 33.3364 281.26 32.9783C280.246 32.6036 279.805 31.6009 279.177 30.8075C278.726 30.2346 278.136 29.7607 277.53 29.3585C275.982 28.3393 274.164 27.7883 272.351 27.4743C270.869 27.2153 269.365 27.1217 267.861 27.1217C256.539 27.1217 254.627 32.8791 254.627 40.3169C254.627 47.7547 256.611 54.5755 267.861 54.5755C270.043 54.5755 272.252 54.4928 274.395 54.0686C276.191 53.7105 278.131 53.0659 279.343 51.6059C280.092 50.6968 279.778 49.1762 278.412 49.1762C275.69 49.1762 272.968 49.1596 270.252 49.1927C268.417 49.2202 266.825 48.4599 266.616 46.4159Z" fill="#1D344B"/>
</svg>
