<svg width="1440" height="154" viewBox="0 0 1440 154" fill="none" xmlns="http://www.w3.org/2000/svg">
<path fill-rule="evenodd" clip-rule="evenodd" d="M1241.69 88.2364C1303.03 90.6765 1371.72 86.9381 1440 82.2953V153.25H0V25.4733C44.0452 10.2533 90.8816 -3.2216 151.148 0.681482C216.859 4.94216 266.059 18.0023 313.639 30.6366C365.319 44.3613 418.767 58.5512 494.129 61.9891C552.395 64.6366 586.387 56.3499 619.294 48.328L619.358 48.3124C653.938 39.8753 686.608 31.91 745.326 36.7263C811.636 42.1684 876.032 50.441 944.201 59.1983L944.202 59.1984L944.357 59.2183C1039.67 71.4634 1138.24 84.1266 1241.69 88.2364Z" fill="white"/>
</svg>
