<svg width="231" height="182" viewBox="0 0 231 182" fill="none" xmlns="http://www.w3.org/2000/svg">
<path d="M55.8241 181.772C87.6757 181.772 109.544 159.903 109.544 134.707C109.544 110.462 98.6098 99.528 82.4463 88.5939C84.8233 62.9225 93.8558 46.759 106.692 26.3169L60.578 0.645508C26.3495 33.9233 0.202637 77.1844 0.202637 125.199C0.202637 158.002 22.0709 181.772 55.8241 181.772ZM177.05 181.772C208.902 181.772 230.77 159.903 230.77 134.707C230.77 110.462 219.836 99.528 203.673 88.5939C206.049 62.9225 215.082 46.759 227.918 26.3169L181.804 0.645508C147.576 33.9233 121.429 77.1844 121.429 125.199C121.429 158.002 143.297 181.772 177.05 181.772Z" fill="#E6FAEC"/>
</svg>
